<svg width="540" height="540" version="1.1"
    xmlns="http://www.w3.org/2000/svg"
    xmlns:xlink="http://www.w3.org/1999/xlink">
    <defs>
        <g id="popover-arrow-left">
            <path d="M0,90 v-90 l90,90 h-90" fill="#fff" />
            <path d="M0,90 v-90 l90,90 h-11.42 l-70,-70 v70" fill="#ccc" />
        </g>
        <g id="popover-arrow-center">
            <path d="M0,90 l90,-90 l90,90 h-180" fill="#fff" />
            <path d="M0,90 l90,-90 l90,90 h-10 l-80,-80 l-80,80" fill="#ccc" />
        </g>
        <g id="popover-arrow-right">
            <path d="M0,90 l90,-90 v90 h-90" fill="#fff" />
            <path d="M0,90 l90,-90 v90 h-8.58 v-70 l-70,70 " fill="#ccc" />
        </g>
    </defs>
    <g>
        <use transform="translate(90, 0)" xlink:href="#popover-arrow-left" />
        <use transform="translate(180, 0)" xlink:href="#popover-arrow-center" />
        <use transform="translate(360, 0)" xlink:href="#popover-arrow-right" />
        <use transform="translate(540, 90) rotate(90)" xlink:href="#popover-arrow-left" />
        <use transform="translate(540, 180) rotate(90)" xlink:href="#popover-arrow-center" />
        <use transform="translate(540, 360) rotate(90)" xlink:href="#popover-arrow-right" />
        <use transform="translate(450, 540) rotate(180)" xlink:href="#popover-arrow-left" />
        <use transform="translate(360, 540) rotate(180)" xlink:href="#popover-arrow-center" />
        <use transform="translate(180, 540) rotate(180)" xlink:href="#popover-arrow-right" />
        <use transform="translate(0, 450) rotate(-90)" xlink:href="#popover-arrow-left" />
        <use transform="translate(0, 360) rotate(-90)" xlink:href="#popover-arrow-center" />
        <use transform="translate(0, 180) rotate(-90)" xlink:href="#popover-arrow-right" />
    </g>
</svg>